<?xml version="1.0" encoding="UTF-8" standalone="no"?>
<!DOCTYPE svg PUBLIC "-//W3C//DTD SVG 1.1//EN"
 "http://www.w3.org/Graphics/SVG/1.1/DTD/svg11.dtd">
<!-- Generated by graphviz version 8.1.0 (20230707.0739)
 -->
<!-- Pages: 1 -->
<svg width="873pt" height="233pt"
 viewBox="0.00 0.00 873.46 233.20" xmlns="http://www.w3.org/2000/svg" xmlns:xlink="http://www.w3.org/1999/xlink">
<g id="graph0" class="graph" transform="scale(1 1) rotate(0) translate(4 229.2)">
<polygon fill="#3f3f3f" stroke="none" points="-4,4 -4,-229.2 869.46,-229.2 869.46,4 -4,4"/>
<text text-anchor="middle" x="432.73" y="-6.05" font-family="Times New Roman,serif" font-size="16.00" fill="white">Network Map</text>
<!-- R4 -->
<g id="node1" class="node">
<title>R4</title>
<polygon fill="#006699" stroke="#006699" points="399.63,-99.35 323.28,-99.35 323.28,-25.25 399.63,-25.25 399.63,-99.35"/>
<text text-anchor="middle" x="361.46" y="-57.25" font-family="Helvetica,sans-Serif" font-size="14.00" fill="white">R4</text>
</g>
<!-- SW1 -->
<g id="node4" class="node">
<title>SW1</title>
<polygon fill="#006699" stroke="#006699" points="284.38,-225.2 194.53,-225.2 194.53,-151.1 284.38,-151.1 284.38,-225.2"/>
<text text-anchor="middle" x="239.46" y="-183.1" font-family="Helvetica,sans-Serif" font-size="14.00" fill="white">SW1</text>
</g>
<!-- R4&#45;&#45;SW1 -->
<g id="edge6" class="edge">
<title>R4&#45;&#45;SW1</title>
<path fill="none" stroke="green" stroke-dasharray="5,2" d="M323.1,-96.7C315.78,-103.4 308.27,-110.49 301.46,-117.35 290.95,-127.93 279.99,-139.92 270.25,-150.94"/>
<text text-anchor="middle" x="350.96" y="-119.8" font-family="Courier,monospace" font-size="14.00" fill="white"> &#160;&#160;&#160;&#160;&#160;&#160;&#160;&#160;&#160;&#160;&#160;</text>
<text text-anchor="middle" x="241.38" y="-137.64" font-family="Courier,monospace" font-size="14.00" fill="white">Eth 0/4</text>
<text text-anchor="middle" x="294.22" y="-83.4" font-family="Courier,monospace" font-size="14.00" fill="white">Eth 0/0</text>
</g>
<!-- R5 -->
<g id="node6" class="node">
<title>R5</title>
<polygon fill="#006699" stroke="#006699" points="582.63,-225.2 506.28,-225.2 506.28,-151.1 582.63,-151.1 582.63,-225.2"/>
<text text-anchor="middle" x="544.46" y="-183.1" font-family="Helvetica,sans-Serif" font-size="14.00" fill="white">R5</text>
</g>
<!-- R4&#45;&#45;R5 -->
<g id="edge7" class="edge">
<title>R4&#45;&#45;R5</title>
<path fill="none" stroke="green" stroke-dasharray="5,2" d="M388.51,-99.52C398.56,-111.28 410.64,-123.71 423.46,-133.1 448.61,-151.52 481.03,-165.59 505.98,-174.74"/>
<text text-anchor="middle" x="472.96" y="-119.8" font-family="Courier,monospace" font-size="14.00" fill="white"> &#160;&#160;&#160;&#160;&#160;&#160;&#160;&#160;&#160;&#160;&#160;</text>
<text text-anchor="middle" x="477.11" y="-161.44" font-family="Courier,monospace" font-size="14.00" fill="white">Eth 0/1</text>
<text text-anchor="middle" x="359.64" y="-101.97" font-family="Courier,monospace" font-size="14.00" fill="white">Eth 0/1</text>
</g>
<!-- R3 -->
<g id="node2" class="node">
<title>R3</title>
<polygon fill="#006699" stroke="#006699" points="216.63,-99.35 140.28,-99.35 140.28,-25.25 216.63,-25.25 216.63,-99.35"/>
<text text-anchor="middle" x="178.46" y="-57.25" font-family="Helvetica,sans-Serif" font-size="14.00" fill="white">R3</text>
</g>
<!-- R3&#45;&#45;SW1 -->
<g id="edge5" class="edge">
<title>R3&#45;&#45;SW1</title>
<path fill="none" stroke="green" stroke-dasharray="5,2" d="M173.49,-99.67C173.4,-110.82 174.8,-122.84 179.46,-133.1 182.99,-140.89 188.25,-148.03 194.21,-154.4"/>
<text text-anchor="middle" x="228.96" y="-119.8" font-family="Courier,monospace" font-size="14.00" fill="white"> &#160;&#160;&#160;&#160;&#160;&#160;&#160;&#160;&#160;&#160;&#160;</text>
<text text-anchor="middle" x="165.33" y="-141.1" font-family="Courier,monospace" font-size="14.00" fill="white">Eth 0/3</text>
<text text-anchor="middle" x="144.62" y="-102.12" font-family="Courier,monospace" font-size="14.00" fill="white">Eth 0/0</text>
</g>
<!-- R1 -->
<g id="node3" class="node">
<title>R1</title>
<polygon fill="#006699" stroke="#006699" points="94.63,-99.35 18.28,-99.35 18.28,-25.25 94.63,-25.25 94.63,-99.35"/>
<text text-anchor="middle" x="56.46" y="-57.25" font-family="Helvetica,sans-Serif" font-size="14.00" fill="white">R1</text>
</g>
<!-- R1&#45;&#45;SW1 -->
<g id="edge1" class="edge">
<title>R1&#45;&#45;SW1</title>
<path fill="none" stroke="green" stroke-dasharray="5,2" d="M57.75,-99.62C59.87,-111.53 64.14,-124.02 72.46,-133.1 103.64,-167.14 156.4,-179.82 194.28,-184.5"/>
<text text-anchor="middle" x="121.96" y="-119.8" font-family="Courier,monospace" font-size="14.00" fill="white"> &#160;&#160;&#160;&#160;&#160;&#160;&#160;&#160;&#160;&#160;&#160;</text>
<text text-anchor="middle" x="165.41" y="-171.2" font-family="Courier,monospace" font-size="14.00" fill="white">Eth 0/1</text>
<text text-anchor="middle" x="28.88" y="-102.07" font-family="Courier,monospace" font-size="14.00" fill="white">Eth 0/0</text>
</g>
<!-- R6 -->
<g id="node5" class="node">
<title>R6</title>
<polygon fill="#006699" stroke="#006699" points="826.63,-225.2 750.28,-225.2 750.28,-151.1 826.63,-151.1 826.63,-225.2"/>
<text text-anchor="middle" x="788.46" y="-183.1" font-family="Helvetica,sans-Serif" font-size="14.00" fill="white">R6</text>
</g>
<!-- R2 -->
<g id="node7" class="node">
<title>R2</title>
<polygon fill="#006699" stroke="#006699" points="704.63,-99.35 628.28,-99.35 628.28,-25.25 704.63,-25.25 704.63,-99.35"/>
<text text-anchor="middle" x="666.46" y="-57.25" font-family="Helvetica,sans-Serif" font-size="14.00" fill="white">R2</text>
</g>
<!-- R2&#45;&#45;SW1 -->
<g id="edge2" class="edge">
<title>R2&#45;&#45;SW1</title>
<path fill="none" stroke="green" stroke-dasharray="5,2" d="M627.88,-76.71C602.43,-86.34 568.87,-100.54 541.46,-117.35 532.11,-123.08 532.38,-128.42 522.46,-133.1 444.18,-169.99 342.46,-181.71 284.73,-185.42"/>
<text text-anchor="middle" x="590.96" y="-119.8" font-family="Courier,monospace" font-size="14.00" fill="white"> &#160;&#160;&#160;&#160;&#160;&#160;&#160;&#160;&#160;&#160;&#160;</text>
<text text-anchor="middle" x="313.6" y="-172.12" font-family="Courier,monospace" font-size="14.00" fill="white">Eth 0/2</text>
<text text-anchor="middle" x="599" y="-63.41" font-family="Courier,monospace" font-size="14.00" fill="white">Eth 0/0</text>
</g>
<!-- R2&#45;&#45;R6 -->
<g id="edge4" class="edge">
<title>R2&#45;&#45;R6</title>
<path fill="none" stroke="green" stroke-dasharray="5,2" d="M705.12,-79.98C722.56,-89.02 742.36,-101.59 756.46,-117.35 764.99,-126.89 771.62,-139.09 776.58,-150.61"/>
<text text-anchor="middle" x="815.96" y="-119.8" font-family="Courier,monospace" font-size="14.00" fill="white"> &#160;&#160;&#160;&#160;&#160;&#160;&#160;&#160;&#160;&#160;&#160;</text>
<text text-anchor="middle" x="747.71" y="-137.31" font-family="Courier,monospace" font-size="14.00" fill="white">Eth 0/1</text>
<text text-anchor="middle" x="733.99" y="-66.68" font-family="Courier,monospace" font-size="14.00" fill="white">Eth 0/2</text>
</g>
<!-- R2&#45;&#45;R5 -->
<g id="edge3" class="edge">
<title>R2&#45;&#45;R5</title>
<path fill="none" stroke="green" stroke-dasharray="5,2" d="M660.62,-99.63C657.37,-111.27 652.31,-123.6 644.46,-133.1 628.5,-152.43 603.76,-165.88 582.89,-174.53"/>
<text text-anchor="middle" x="702.96" y="-119.8" font-family="Courier,monospace" font-size="14.00" fill="white"> &#160;&#160;&#160;&#160;&#160;&#160;&#160;&#160;&#160;&#160;&#160;</text>
<text text-anchor="middle" x="611.76" y="-161.23" font-family="Courier,monospace" font-size="14.00" fill="white">Eth 0/0</text>
<text text-anchor="middle" x="631.75" y="-102.08" font-family="Courier,monospace" font-size="14.00" fill="white">Eth 0/1</text>
</g>
</g>
</svg>
