<?xml version="1.0" encoding="UTF-8" standalone="no"?>
<!DOCTYPE svg PUBLIC "-//W3C//DTD SVG 1.1//EN"
 "http://www.w3.org/Graphics/SVG/1.1/DTD/svg11.dtd">
<!-- Generated by graphviz version 8.0.5 (20230430.1635)
 -->
<!-- Pages: 1 -->
<svg width="889pt" height="233pt"
 viewBox="0.00 0.00 888.71 233.20" xmlns="http://www.w3.org/2000/svg" xmlns:xlink="http://www.w3.org/1999/xlink">
<g id="graph0" class="graph" transform="scale(1 1) rotate(0) translate(4 229.2)">
<polygon fill="#333333" stroke="none" points="-4,4 -4,-229.2 884.71,-229.2 884.71,4 -4,4"/>
<text text-anchor="middle" x="440.36" y="-6.05" font-family="Times New Roman,serif" font-size="16.00" fill="white">Network Map</text>
<!-- SW2 -->
<g id="node1" class="node">
<title>SW2</title>
<polygon fill="#006699" stroke="#006699" points="107.64,-225.2 17.79,-225.2 17.79,-151.1 107.64,-151.1 107.64,-225.2"/>
<text text-anchor="middle" x="62.71" y="-183.1" font-family="Helvetica,sans-Serif" font-size="14.00" fill="white">SW2</text>
</g>
<!-- SW1 -->
<g id="node2" class="node">
<title>SW1</title>
<polygon fill="#006699" stroke="#006699" points="412.64,-225.2 322.79,-225.2 322.79,-151.1 412.64,-151.1 412.64,-225.2"/>
<text text-anchor="middle" x="367.71" y="-183.1" font-family="Helvetica,sans-Serif" font-size="14.00" fill="white">SW1</text>
</g>
<!-- R2 -->
<g id="node3" class="node">
<title>R2</title>
<polygon fill="#006699" stroke="#006699" points="161.89,-99.35 85.54,-99.35 85.54,-25.25 161.89,-25.25 161.89,-99.35"/>
<text text-anchor="middle" x="123.71" y="-57.25" font-family="Helvetica,sans-Serif" font-size="14.00" fill="white">R2</text>
</g>
<!-- R2&#45;&#45;SW2 -->
<g id="edge5" class="edge">
<title>R2&#45;&#45;SW2</title>
<path fill="none" stroke="green" stroke-dasharray="5,2" d="M85.13,-89.47C76.52,-97.35 68.52,-106.75 63.71,-117.35 59.06,-127.61 57.65,-139.63 57.75,-150.78"/>
<text text-anchor="middle" x="113.21" y="-119.8" font-family="Courier,monospace" font-size="14.00" fill="white"> &#160;&#160;&#160;&#160;&#160;&#160;&#160;&#160;&#160;&#160;&#160;</text>
<text text-anchor="middle" x="28.88" y="-137.48" font-family="Courier,monospace" font-size="14.00" fill="white">Eth0/11</text>
<text text-anchor="middle" x="60.38" y="-76.17" font-family="Courier,monospace" font-size="14.00" fill="white">Eth0/1</text>
</g>
<!-- R2&#45;&#45;SW1 -->
<g id="edge2" class="edge">
<title>R2&#45;&#45;SW1</title>
<path fill="none" stroke="green" stroke-dasharray="5,2" d="M157.63,-99.76C170.24,-111.69 185.25,-124.15 200.71,-133.1 238.96,-155.24 287.45,-169.64 322.32,-177.96"/>
<text text-anchor="middle" x="250.21" y="-119.8" font-family="Courier,monospace" font-size="14.00" fill="white"> &#160;&#160;&#160;&#160;&#160;&#160;&#160;&#160;&#160;&#160;&#160;</text>
<text text-anchor="middle" x="297.57" y="-164.66" font-family="Courier,monospace" font-size="14.00" fill="white">Eth0/2</text>
<text text-anchor="middle" x="132.88" y="-102.21" font-family="Courier,monospace" font-size="14.00" fill="white">Eth0/0</text>
</g>
<!-- R1 -->
<g id="node4" class="node">
<title>R1</title>
<polygon fill="#006699" stroke="#006699" points="344.89,-99.35 268.54,-99.35 268.54,-25.25 344.89,-25.25 344.89,-99.35"/>
<text text-anchor="middle" x="306.71" y="-57.25" font-family="Helvetica,sans-Serif" font-size="14.00" fill="white">R1</text>
</g>
<!-- R1&#45;&#45;SW1 -->
<g id="edge1" class="edge">
<title>R1&#45;&#45;SW1</title>
<path fill="none" stroke="green" stroke-dasharray="5,2" d="M301.75,-99.67C301.65,-110.82 303.06,-122.84 307.71,-133.1 311.25,-140.89 316.5,-148.03 322.46,-154.4"/>
<text text-anchor="middle" x="357.21" y="-119.8" font-family="Courier,monospace" font-size="14.00" fill="white"> &#160;&#160;&#160;&#160;&#160;&#160;&#160;&#160;&#160;&#160;&#160;</text>
<text text-anchor="middle" x="297.71" y="-141.1" font-family="Courier,monospace" font-size="14.00" fill="white">Eth0/1</text>
<text text-anchor="middle" x="277" y="-102.12" font-family="Courier,monospace" font-size="14.00" fill="white">Eth0/0</text>
</g>
<!-- R4 -->
<g id="node5" class="node">
<title>R4</title>
<polygon fill="#006699" stroke="#006699" points="710.89,-225.2 634.54,-225.2 634.54,-151.1 710.89,-151.1 710.89,-225.2"/>
<text text-anchor="middle" x="672.71" y="-183.1" font-family="Helvetica,sans-Serif" font-size="14.00" fill="white">R4</text>
</g>
<!-- R6 -->
<g id="node6" class="node">
<title>R6</title>
<polygon fill="#006699" stroke="#006699" points="466.89,-99.35 390.54,-99.35 390.54,-25.25 466.89,-25.25 466.89,-99.35"/>
<text text-anchor="middle" x="428.71" y="-57.25" font-family="Helvetica,sans-Serif" font-size="14.00" fill="white">R6</text>
</g>
<!-- R6&#45;&#45;SW1 -->
<g id="edge4" class="edge">
<title>R6&#45;&#45;SW1</title>
<path fill="none" stroke="green" stroke-dasharray="5,2" d="M419.65,-99.67C416.27,-110.7 411.96,-122.65 406.71,-133.1 403.75,-138.99 400.18,-144.94 396.41,-150.63"/>
<text text-anchor="middle" x="463.21" y="-119.8" font-family="Courier,monospace" font-size="14.00" fill="white"> &#160;&#160;&#160;&#160;&#160;&#160;&#160;&#160;&#160;&#160;&#160;</text>
<text text-anchor="middle" x="371.66" y="-137.33" font-family="Courier,monospace" font-size="14.00" fill="white">Eth0/5</text>
<text text-anchor="middle" x="394.9" y="-102.12" font-family="Courier,monospace" font-size="14.00" fill="white">Eth0/1</text>
</g>
<!-- R3 -->
<g id="node7" class="node">
<title>R3</title>
<polygon fill="#006699" stroke="#006699" points="710.89,-99.35 634.54,-99.35 634.54,-25.25 710.89,-25.25 710.89,-99.35"/>
<text text-anchor="middle" x="672.71" y="-57.25" font-family="Helvetica,sans-Serif" font-size="14.00" fill="white">R3</text>
</g>
<!-- R3&#45;&#45;SW1 -->
<g id="edge3" class="edge">
<title>R3&#45;&#45;SW1</title>
<path fill="none" stroke="green" stroke-dasharray="5,2" d="M634.26,-81.44C602.89,-96.02 557.29,-116.69 516.71,-133.1 482.28,-147.03 442.72,-161.3 413.03,-171.68"/>
<text text-anchor="middle" x="601.21" y="-119.8" font-family="Courier,monospace" font-size="14.00" fill="white"> &#160;&#160;&#160;&#160;&#160;&#160;&#160;&#160;&#160;&#160;&#160;</text>
<text text-anchor="middle" x="437.78" y="-158.38" font-family="Courier,monospace" font-size="14.00" fill="white">Eth0/3</text>
<text text-anchor="middle" x="609.51" y="-68.14" font-family="Courier,monospace" font-size="14.00" fill="white">Eth0/0</text>
</g>
<!-- R3&#45;&#45;R4 -->
<g id="edge6" class="edge">
<title>R3&#45;&#45;R4</title>
<path fill="none" stroke="green" stroke-dasharray="5,2" d="M672.71,-99.79C672.71,-115.91 672.71,-134.83 672.71,-150.92"/>
<text text-anchor="middle" x="722.21" y="-119.8" font-family="Courier,monospace" font-size="14.00" fill="white"> &#160;&#160;&#160;&#160;&#160;&#160;&#160;&#160;&#160;&#160;&#160;</text>
<text text-anchor="middle" x="647.96" y="-137.62" font-family="Courier,monospace" font-size="14.00" fill="white">Eth0/0</text>
<text text-anchor="middle" x="647.96" y="-102.24" font-family="Courier,monospace" font-size="14.00" fill="white">Eth0/1</text>
</g>
<!-- R5 -->
<g id="node8" class="node">
<title>R5</title>
<polygon fill="#006699" stroke="#006699" points="832.89,-225.2 756.54,-225.2 756.54,-151.1 832.89,-151.1 832.89,-225.2"/>
<text text-anchor="middle" x="794.71" y="-183.1" font-family="Helvetica,sans-Serif" font-size="14.00" fill="white">R5</text>
</g>
<!-- R3&#45;&#45;R5 -->
<g id="edge7" class="edge">
<title>R3&#45;&#45;R5</title>
<path fill="none" stroke="green" stroke-dasharray="5,2" d="M711.14,-75.92C732.02,-84.57 756.75,-98.02 772.71,-117.35 780.56,-126.85 785.62,-139.18 788.88,-150.82"/>
<text text-anchor="middle" x="831.21" y="-119.8" font-family="Courier,monospace" font-size="14.00" fill="white"> &#160;&#160;&#160;&#160;&#160;&#160;&#160;&#160;&#160;&#160;&#160;</text>
<text text-anchor="middle" x="764.13" y="-137.52" font-family="Courier,monospace" font-size="14.00" fill="white">Eth0/0</text>
<text text-anchor="middle" x="735.89" y="-62.62" font-family="Courier,monospace" font-size="14.00" fill="white">Eth0/2</text>
</g>
</g>
</svg>
